# xmcd
#
# Track frame offsets: 
#        150
#        13368
#        26500
#        43638
#        57775
#        74327
#        90055
#        110158
#        123201
#        136935
#        151366
#        163062
#
# Disc length: 2379 seconds
#
# Revision: 0
# Processed by: cddbd v1.5.2PL0 Copyright (c) Steve Scherf et al.
# Submitted via: ExactAudioCopy v0.99pb4
#
DISCID=9809490c
DTITLE=Jonas Brothers - A Little Bit Longer
DYEAR=2008
DGENRE=Pop 
TTITLE0=BB Good  
TTITLE1=Burnin' Up
TTITLE2=Shelf
TTITLE3=One Man Show
TTITLE4=Lovebug
TTITLE5=Tonight
TTITLE6=Can't Have You
TTITLE7=Video Girl  
TTITLE8=Pushin' Me Away
TTITLE9=Sorry 
TTITLE10=Got Me Going Crazy
TTITLE11=A Little Bit Longer  
EXTD=
EXTT0=
EXTT1=
EXTT2=
EXTT3=
EXTT4=
EXTT5=
EXTT6=
EXTT7=
EXTT8=
EXTT9=
EXTT10=
EXTT11=
PLAYORDER=
